HIERARCHY
ROOT hip
{
  OFFSET -0.0558518 90.8527 -0.103361
  CHANNELS 6 Xposition Yposition Zposition Zrotation Xrotation Yrotation
  JOINT abdomen
  {
    OFFSET 0 7.2397 0
    CHANNELS 6 Xposition Yposition Zposition Zrotation Xrotation Yrotation
    JOINT chest
    {
      OFFSET 0 16.546 0
      CHANNELS 6 Xposition Yposition Zposition Zrotation Xrotation Yrotation
      JOINT neck
      {
        OFFSET 0 34.2149 0
        CHANNELS 6 Xposition Yposition Zposition Zrotation Xrotation Yrotation
        JOINT head
        {
          OFFSET 0 6.2923 0
          CHANNELS 6 Xposition Yposition Zposition Zrotation Xrotation Yrotation
          End Site
          {
            OFFSET 0 21.2161 0
          }
        }
      }
      JOINT lCollar
      {
        OFFSET 4.0639 26.6115 -1.1234
        CHANNELS 6 Xposition Yposition Zposition Zrotation Xrotation Yrotation
        JOINT lShldr
        {
          OFFSET 14.1772 0 0
          CHANNELS 6 Xposition Yposition Zposition Zrotation Xrotation Yrotation
          JOINT lForeArm
          {
            OFFSET 26.1234 0 0
            CHANNELS 6 Xposition Yposition Zposition Zrotation Xrotation Yrotation
            JOINT lHand
            {
              OFFSET 27.7188 0 0
              CHANNELS 6 Xposition Yposition Zposition Zrotation Xrotation Yrotation
              JOINT lThumb1
              {
                OFFSET 2.2979 -0.4685 1.8313
                CHANNELS 6 Xposition Yposition Zposition Zrotation Xrotation Yrotation
                JOINT lThumb2
                {
                  OFFSET 5.2953 0 0
                  CHANNELS 6 Xposition Yposition Zposition Zrotation Xrotation Yrotation
                  JOINT lThumb3
                  {
                    OFFSET 3.0181 0 0
                    CHANNELS 6 Xposition Yposition Zposition Zrotation Xrotation Yrotation
                    End Site
                    {
                      OFFSET 2.6294 0 0
                    }
                  }
                }
              }
              JOINT lIndex1
              {
                OFFSET 9.3793 0.2991 2.5924
                CHANNELS 6 Xposition Yposition Zposition Zrotation Xrotation Yrotation
                JOINT lIndex2
                {
                  OFFSET 4.3461 0 0
                  CHANNELS 6 Xposition Yposition Zposition Zrotation Xrotation Yrotation
                  JOINT lIndex3
                  {
                    OFFSET 2.1666 0 0
                    CHANNELS 6 Xposition Yposition Zposition Zrotation Xrotation Yrotation
                    End Site
                    {
                      OFFSET 2.2048 0 0
                    }
                  }
                }
              }
              JOINT lMid1
              {
                OFFSET 9.4769 0.8376 0.2947
                CHANNELS 6 Xposition Yposition Zposition Zrotation Xrotation Yrotation
                JOINT lMid2
                {
                  OFFSET 4.772 0 0
                  CHANNELS 6 Xposition Yposition Zposition Zrotation Xrotation Yrotation
                  JOINT lMid3
                  {
                    OFFSET 2.8722 0 0
                    CHANNELS 6 Xposition Yposition Zposition Zrotation Xrotation Yrotation
                    End Site
                    {
                      OFFSET 2.0959 0 0
                    }
                  }
                }
              }
              JOINT lRing1
              {
                OFFSET 8.6586 1.0176 -1.7016
                CHANNELS 6 Xposition Yposition Zposition Zrotation Xrotation Yrotation
                JOINT lRing2
                {
                  OFFSET 4.5461 0 0
                  CHANNELS 6 Xposition Yposition Zposition Zrotation Xrotation Yrotation
                  JOINT lRing3
                  {
                    OFFSET 2.506 0 0
                    CHANNELS 6 Xposition Yposition Zposition Zrotation Xrotation Yrotation
                    End Site
                    {
                      OFFSET 2.2023 0 0
                    }
                  }
                }
              }
              JOINT lPinky1
              {
                OFFSET 7.6901 0.6618 -3.9096
                CHANNELS 6 Xposition Yposition Zposition Zrotation Xrotation Yrotation
                JOINT lPinky2
                {
                  OFFSET 3.2119 0 0
                  CHANNELS 6 Xposition Yposition Zposition Zrotation Xrotation Yrotation
                  JOINT lPinky3
                  {
                    OFFSET 1.924 0 0
                    CHANNELS 6 Xposition Yposition Zposition Zrotation Xrotation Yrotation
                    End Site
                    {
                      OFFSET 1.7829 0 0
                    }
                  }
                }
              }
            }
          }
        }
      }
      JOINT rCollar
      {
        OFFSET -4.0677 26.6109 -1.1234
        CHANNELS 6 Xposition Yposition Zposition Zrotation Xrotation Yrotation
        JOINT rShldr
        {
          OFFSET -14.1772 0 0
          CHANNELS 6 Xposition Yposition Zposition Zrotation Xrotation Yrotation
          JOINT rForeArm
          {
            OFFSET -26.1234 0 0
            CHANNELS 6 Xposition Yposition Zposition Zrotation Xrotation Yrotation
            JOINT rHand
            {
              OFFSET -27.7188 0 0
              CHANNELS 6 Xposition Yposition Zposition Zrotation Xrotation Yrotation
              JOINT rThumb1
              {
                OFFSET -2.2979 -0.4684 1.8313
                CHANNELS 6 Xposition Yposition Zposition Zrotation Xrotation Yrotation
                JOINT rThumb2
                {
                  OFFSET -5.2953 0 0
                  CHANNELS 6 Xposition Yposition Zposition Zrotation Xrotation Yrotation
                  JOINT rThumb3
                  {
                    OFFSET -3.0181 0 0
                    CHANNELS 6 Xposition Yposition Zposition Zrotation Xrotation Yrotation
                    End Site
                    {
                      OFFSET -2.6294 0 0
                    }
                  }
                }
              }
              JOINT rIndex1
              {
                OFFSET -9.3793 0.2991 2.5924
                CHANNELS 6 Xposition Yposition Zposition Zrotation Xrotation Yrotation
                JOINT rIndex2
                {
                  OFFSET -4.3461 0 0
                  CHANNELS 6 Xposition Yposition Zposition Zrotation Xrotation Yrotation
                  JOINT rIndex3
                  {
                    OFFSET -2.1666 0 0
                    CHANNELS 6 Xposition Yposition Zposition Zrotation Xrotation Yrotation
                    End Site
                    {
                      OFFSET -2.2048 0 0
                    }
                  }
                }
              }
              JOINT rMid1
              {
                OFFSET -9.4769 0.8376 0.2947
                CHANNELS 6 Xposition Yposition Zposition Zrotation Xrotation Yrotation
                JOINT rMid2
                {
                  OFFSET -4.772 0 0
                  CHANNELS 6 Xposition Yposition Zposition Zrotation Xrotation Yrotation
                  JOINT rMid3
                  {
                    OFFSET -2.8722 0 0
                    CHANNELS 6 Xposition Yposition Zposition Zrotation Xrotation Yrotation
                    End Site
                    {
                      OFFSET -2.0959 0 0
                    }
                  }
                }
              }
              JOINT rRing1
              {
                OFFSET -8.6586 1.0176 -1.7016
                CHANNELS 6 Xposition Yposition Zposition Zrotation Xrotation Yrotation
                JOINT rRing2
                {
                  OFFSET -4.5461 0 0
                  CHANNELS 6 Xposition Yposition Zposition Zrotation Xrotation Yrotation
                  JOINT rRing3
                  {
                    OFFSET -2.506 0 0
                    CHANNELS 6 Xposition Yposition Zposition Zrotation Xrotation Yrotation
                    End Site
                    {
                      OFFSET -2.2023 0 0
                    }
                  }
                }
              }
              JOINT rPinky1
              {
                OFFSET -7.6901 0.6618 -3.9096
                CHANNELS 6 Xposition Yposition Zposition Zrotation Xrotation Yrotation
                JOINT rPinky2
                {
                  OFFSET -3.2119 0 0
                  CHANNELS 6 Xposition Yposition Zposition Zrotation Xrotation Yrotation
                  JOINT rPinky3
                  {
                    OFFSET -1.924 0 0
                    CHANNELS 6 Xposition Yposition Zposition Zrotation Xrotation Yrotation
                    End Site
                    {
                      OFFSET -1.7829 0 0
                    }
                  }
                }
              }
            }
          }
        }
      }
    }
  }
  JOINT lThigh
  {
    OFFSET 8.7379 -0.0029 0.0005
    CHANNELS 6 Xposition Yposition Zposition Zrotation Xrotation Yrotation
    JOINT lShin
    {
      OFFSET 0 -46.6676 0
      CHANNELS 6 Xposition Yposition Zposition Zrotation Xrotation Yrotation
      JOINT lFoot
      {
        OFFSET 0 -40.1476 0
        CHANNELS 6 Xposition Yposition Zposition Zrotation Xrotation Yrotation
        JOINT lToes
        {
          OFFSET 0 -8.8846 14.2294
          CHANNELS 6 Xposition Yposition Zposition Zrotation Xrotation Yrotation
          End Site
          {
            OFFSET 0 0 6.296
          }
        }
      }
    }
  }
  JOINT rThigh
  {
    OFFSET -8.7379 0.0029 -0.0005
    CHANNELS 6 Xposition Yposition Zposition Zrotation Xrotation Yrotation
    JOINT rShin
    {
      OFFSET 0 -46.6676 0
      CHANNELS 6 Xposition Yposition Zposition Zrotation Xrotation Yrotation
      JOINT rFoot
      {
        OFFSET 0 -40.1476 0
        CHANNELS 6 Xposition Yposition Zposition Zrotation Xrotation Yrotation
        JOINT rToes
        {
          OFFSET 0 -8.8846 14.2294
          CHANNELS 6 Xposition Yposition Zposition Zrotation Xrotation Yrotation
          End Site
          {
            OFFSET 0 0 6.296
          }
        }
      }
    }
  }
}
MOTION
Frames:	4
Frame Time:	0.0333333
0.0554039 90.8379 -0.248488 -1.52781 -2.88478 -15.9337 0 7.2397 8.88178e-16 -0.281108 -1.28331 2.16802 -2.22045e-16 16.546 0 -0.348439 -0.710319 4.35414 4.44089e-16 34.2149 1.77636e-15 4.17621 31.9604 -0.39638 -8.88178e-16 6.2923 1.42109e-14 1.91382 -0.177801 7.0717 4.0639 26.6115 -1.1234 8.315 -3.96407 -4.00099 14.1772 0 -1.77636e-15 -24.8836 22.4072 -74.4461 26.1234 -2.84217e-14 -1.77636e-15 -0.545864 -1.06801 -22.1402 27.7188 0 0 -144.93 -70.0107 -141.673 2.2979 -0.4685 1.8313 54.886 65.607 -75.7795 5.2953 1.42109e-14 -7.10543e-15 -8.70849 2.76102 2.42479 3.0181 0 -1.42109e-14 11.6481 0.61101 2.85779 9.3793 0.2991 2.5924 -37.6441 -3.26515 6.5738 4.3461 7.10543e-15 0 -42.5842 -3.16844 8.82364 2.1666 0 0 -23.5156 -1.04861 4.59752 9.4769 0.8376 0.2947 -37.3068 -6.04138 6.59723 4.772 7.10543e-15 0 -41.9731 -4.04174 10.7441 2.8722 0 0 -17.1357 -0.596845 6.17678 8.6586 1.0176 -1.7016 -38.0912 0.617167 6.56346 4.5461 7.10543e-15 -2.84217e-14 -43.1878 -2.431 6.13675 2.506 0 2.84217e-14 -14.8734 -0.237715 3.35081 7.6901 0.6618 -3.9096 -35.3447 -10.4149 10.7688 3.2119 0 0 -42.3305 -2.63458 11.0123 1.924 7.10543e-15 0 -16.1163 -0.767897 7.48204 -4.0677 26.6109 -1.1234 -0.0556992 -4.98397 -12.4483 -14.1772 -2.84217e-14 -3.55271e-15 4.01653 16.9168 104.175 -26.1234 0 1.11022e-15 0.485476 -0.988609 20.31 -27.7188 0 -1.77636e-15 -20.7626 -55.013 -34.5368 -2.2979 -0.4684 1.8313 -55.004 65.3178 75.4387 -5.2953 0 0 9.69082 2.7701 -2.07063 -3.0181 -2.84217e-14 0 -13.4379 0.507332 -2.20406 -9.3793 0.2991 2.5924 57.056 -6.05595 -9.52957 -4.3461 0 0 61.9058 -6.69708 -11.599 -2.1666 0 -1.42109e-14 33.2487 -2.09088 -6.54191 -9.4769 0.8376 0.2947 56.5877 -8.81361 -9.59019 -4.772 -7.10543e-15 0 60.9125 -8.26704 -14.1638 -2.8722 -7.10543e-15 0 26.7462 -1.60357 -8.69455 -8.6586 1.0176 -1.7016 57.703 -2.20164 -9.48297 -4.5461 0 -1.42109e-14 62.8817 -4.92884 -8.05336 -2.506 0 1.42109e-14 24.7665 -0.767537 -4.84158 -7.6901 0.6618 -3.9096 55.7975 -13.3676 -9.74232 -3.2119 -3.55271e-15 -1.42109e-14 58.912 -10.4737 -18.4365 -1.924 0 0 25.442 -2.0013 -10.7523 8.7379 -0.0029 0.0005 11.5274 -20.3738 35.4772 -1.11022e-16 -46.6676 7.10543e-15 18.3924 40.1546 -2.17837 -3.55271e-15 -40.1476 -1.77636e-15 -11.4178 -14.1573 6.35238 -3.55271e-15 -8.8846 14.2294 0.0001 9.93923e-17 -0 -8.7379 0.0029 -0.0005 -8.59112 -17.7135 -32.3954 4.44089e-16 -46.6676 0 -18.3693 40.4391 4.49255 5.32907e-15 -40.1476 -1.77636e-15 12.4599 -17.6389 -5.89192 0 -8.8846 14.2294 3.31043e-32 1.98785e-16 -9.54166e-15 
0.0542231 90.8317 -0.2523 -1.50439 -2.84988 -15.9214 0 7.2397 -8.88178e-16 -0.28719 -1.29681 2.16357 2.22045e-16 16.546 0 -0.356198 -0.737464 4.34564 0 34.2149 0 4.20073 31.9699 -0.413025 0 6.2923 1.42109e-14 1.89663 -0.262753 7.04212 4.0639 26.6115 -1.1234 8.31778 -3.96567 -3.99738 14.1772 0 -1.77636e-15 -25.0535 22.3766 -74.3521 26.1234 0 3.55271e-15 -0.545807 -1.06792 -22.1382 27.7188 0 0 -144.86 -69.8589 -141.686 2.2979 -0.4685 1.8313 54.886 65.607 -75.7795 5.2953 1.42109e-14 0 -8.70849 2.76102 2.42479 3.0181 1.42109e-14 7.10543e-15 11.6481 0.61101 2.85779 9.3793 0.2991 2.5924 -37.6441 -3.26515 6.5738 4.3461 0 0 -42.5842 -3.16844 8.82364 2.1666 -7.10543e-15 0 -23.5156 -1.04861 4.59752 9.4769 0.8376 0.2947 -37.3068 -6.04138 6.59723 4.772 -1.42109e-14 -1.42109e-14 -41.9731 -4.04174 10.7441 2.8722 0 -2.84217e-14 -17.1357 -0.596845 6.17678 8.6586 1.0176 -1.7016 -38.0912 0.617167 6.56346 4.5461 7.10543e-15 0 -43.1878 -2.431 6.13675 2.506 0 2.84217e-14 -14.8734 -0.237715 3.35081 7.6901 0.6618 -3.9096 -35.3447 -10.4149 10.7688 3.2119 0 0 -42.3305 -2.63458 11.0123 1.924 0 2.84217e-14 -16.1163 -0.767897 7.48204 -4.0677 26.6109 -1.1234 0.00179996 -4.99149 -12.4693 -14.1772 -2.84217e-14 0 3.95076 16.9109 104.212 -26.1234 -2.84217e-14 -2.22045e-15 0.483688 -0.986168 20.2544 -27.7188 -2.84217e-14 4.44089e-16 -20.6266 -54.9542 -34.252 -2.2979 -0.4684 1.8313 -55.004 65.3178 75.4387 -5.2953 0 0 9.69082 2.7701 -2.07063 -3.0181 -2.84217e-14 7.10543e-15 -13.4379 0.507332 -2.20406 -9.3793 0.2991 2.5924 57.056 -6.05595 -9.52957 -4.3461 0 -1.42109e-14 61.9058 -6.69708 -11.599 -2.1666 0 1.42109e-14 33.2487 -2.09088 -6.54191 -9.4769 0.8376 0.2947 56.5877 -8.81361 -9.59019 -4.772 -1.42109e-14 1.42109e-14 60.9125 -8.26704 -14.1638 -2.8722 7.10543e-15 0 26.7462 -1.60357 -8.69455 -8.6586 1.0176 -1.7016 57.703 -2.20164 -9.48297 -4.5461 -7.10543e-15 0 62.8817 -4.92884 -8.05336 -2.506 7.10543e-15 0 24.7665 -0.767537 -4.84158 -7.6901 0.6618 -3.9096 55.7975 -13.3676 -9.74232 -3.2119 0 0 58.912 -10.4737 -18.4365 -1.924 -1.42109e-14 1.42109e-14 25.442 -2.0013 -10.7523 8.7379 -0.0029 0.0005 11.4784 -20.4335 35.3299 0 -46.6676 0 18.3776 40.1746 -2.04615 3.55271e-15 -40.1476 0 -11.4598 -14.1411 6.35527 0 -8.8846 14.2294 0.0001 4.96962e-17 -0 -8.7379 0.0029 -0.0005 -8.63087 -17.7611 -32.53 0 -46.6676 -7.10543e-15 -18.4287 40.4496 4.6242 -1.77636e-15 -40.1476 8.88178e-16 12.4417 -17.6642 -5.88666 0 -8.8846 14.2294 1.98785e-16 -1.49089e-16 6.36111e-15 
0.0501959 90.8233 -0.256104 -1.4948 -2.81342 -15.9099 0 7.2397 8.88178e-16 -0.293114 -1.30667 2.16526 -2.22045e-16 16.546 0 -0.364205 -0.757335 4.34943 0 34.2149 0 4.25408 31.9617 -0.444219 -8.88178e-16 6.2923 0 1.87895 -0.310332 7.00308 4.0639 26.6115 -1.1234 8.37276 -3.96992 -4.00224 14.1772 0 0 -25.3803 22.3313 -74.2206 26.1234 0 -7.10543e-15 -0.545659 -1.06775 -22.1339 27.7188 0 0 -144.759 -69.7091 -141.67 2.2979 -0.4685 1.8313 54.886 65.607 -75.7795 5.2953 0 1.42109e-14 -8.70849 2.76102 2.42479 3.0181 0 -7.10543e-15 11.6481 0.61101 2.85779 9.3793 0.2991 2.5924 -37.6441 -3.26515 6.5738 4.3461 0 0 -42.5842 -3.16844 8.82364 2.1666 0 0 -23.5156 -1.04861 4.59752 9.4769 0.8376 0.2947 -37.3068 -6.04138 6.59723 4.772 0 1.42109e-14 -41.9731 -4.04174 10.7441 2.8722 0 0 -17.1357 -0.596845 6.17678 8.6586 1.0176 -1.7016 -38.0912 0.617167 6.56346 4.5461 7.10543e-15 -2.84217e-14 -43.1878 -2.431 6.13675 2.506 0 0 -14.8734 -0.237715 3.35081 7.6901 0.6618 -3.9096 -35.3447 -10.4149 10.7688 3.2119 -1.42109e-14 -1.42109e-14 -42.3305 -2.63458 11.0123 1.924 -7.10543e-15 0 -16.1163 -0.767897 7.48204 -4.0677 26.6109 -1.1234 0.121941 -5.01553 -12.5472 -14.1772 0 0 3.81058 16.8913 104.286 -26.1234 0 2.44249e-15 0.482142 -0.984057 20.2064 -27.7188 2.84217e-14 -8.88178e-16 -20.5563 -54.9025 -33.9749 -2.2979 -0.4684 1.8313 -55.004 65.3178 75.4387 -5.2953 2.84217e-14 0 9.69082 2.7701 -2.07063 -3.0181 0 -7.10543e-15 -13.4379 0.507332 -2.20406 -9.3793 0.2991 2.5924 57.056 -6.05595 -9.52957 -4.3461 0 1.42109e-14 61.9058 -6.69708 -11.599 -2.1666 -7.10543e-15 -2.84217e-14 33.2487 -2.09088 -6.54191 -9.4769 0.8376 0.2947 56.5877 -8.81361 -9.59019 -4.772 -7.10543e-15 0 60.9125 -8.26704 -14.1638 -2.8722 -1.42109e-14 1.42109e-14 26.7462 -1.60357 -8.69455 -8.6586 1.0176 -1.7016 57.703 -2.20164 -9.48297 -4.5461 -7.10543e-15 1.42109e-14 62.8817 -4.92884 -8.05336 -2.506 0 0 24.7665 -0.767537 -4.84158 -7.6901 0.6618 -3.9096 55.7975 -13.3676 -9.74232 -3.2119 7.10543e-15 0 58.912 -10.4737 -18.4365 -1.924 0 0 25.442 -2.0013 -10.7523 8.7379 -0.0029 0.0005 11.4321 -20.5005 35.1176 1.11022e-16 -46.6676 7.10543e-15 18.3584 40.2132 -1.85125 -1.77636e-15 -40.1476 0 -11.5265 -14.1215 6.35808 -2.66454e-15 -8.8846 14.2294 0.0001 1.49089e-16 9.54166e-15 -8.7379 0.0029 -0.0005 -8.6414 -17.8099 -32.5959 -8.88178e-16 -46.6676 -7.10543e-15 -18.4656 40.4712 4.68753 3.55271e-15 -40.1476 -8.88178e-16 12.4349 -17.6869 -5.88332 1.77636e-15 -8.8846 14.2294 1.98785e-16 4.96962e-17 -3.18055e-15 
0.0427136 90.8122 -0.259051 -1.49957 -2.77603 -15.8964 0 7.2397 0 -0.299187 -1.31302 2.17328 -4.44089e-16 16.546 1.77636e-15 -0.373489 -0.770208 4.366 -4.44089e-16 34.2149 -1.77636e-15 4.32336 31.9352 -0.481672 -8.88178e-16 6.2923 -1.42109e-14 1.88089 -0.280821 6.96839 4.0639 26.6115 -1.1234 8.47158 -3.97528 -4.02952 14.1772 2.84217e-14 0 -25.7041 22.2845 -74.0998 26.1234 2.84217e-14 -1.77636e-15 -0.546127 -1.06834 -22.1477 27.7188 2.84217e-14 0 -144.722 -69.5698 -141.72 2.2979 -0.4685 1.8313 54.886 65.607 -75.7795 5.2953 -1.42109e-14 -7.10543e-15 -8.70849 2.76102 2.42479 3.0181 0 7.10543e-15 11.6481 0.61101 2.85779 9.3793 0.2991 2.5924 -37.6441 -3.26515 6.5738 4.3461 -7.10543e-15 0 -42.5842 -3.16844 8.82364 2.1666 0 2.84217e-14 -23.5156 -1.04861 4.59752 9.4769 0.8376 0.2947 -37.3068 -6.04138 6.59723 4.772 -7.10543e-15 0 -41.9731 -4.04174 10.7441 2.8722 -7.10543e-15 0 -17.1357 -0.596845 6.17678 8.6586 1.0176 -1.7016 -38.0912 0.617167 6.56346 4.5461 -7.10543e-15 0 -43.1878 -2.431 6.13675 2.506 0 0 -14.8734 -0.237715 3.35081 7.6901 0.6618 -3.9096 -35.3447 -10.4149 10.7688 3.2119 1.42109e-14 -1.42109e-14 -42.3305 -2.63458 11.0123 1.924 7.10543e-15 0 -16.1163 -0.767897 7.48204 -4.0677 26.6109 -1.1234 0.284184 -5.05172 -12.6701 -14.1772 2.84217e-14 3.55271e-15 3.64537 16.8807 104.367 -26.1234 2.84217e-14 2.22045e-15 0.481111 -0.982648 20.1744 -27.7188 0 4.44089e-16 -20.537 -54.8279 -33.7129 -2.2979 -0.4684 1.8313 -55.004 65.3178 75.4387 -5.2953 1.42109e-14 1.42109e-14 9.69082 2.7701 -2.07063 -3.0181 -2.84217e-14 0 -13.4379 0.507332 -2.20406 -9.3793 0.2991 2.5924 57.056 -6.05595 -9.52957 -4.3461 0 1.42109e-14 61.9058 -6.69708 -11.599 -2.1666 -7.10543e-15 -1.42109e-14 33.2487 -2.09088 -6.54191 -9.4769 0.8376 0.2947 56.5877 -8.81361 -9.59019 -4.772 -7.10543e-15 2.84217e-14 60.9125 -8.26704 -14.1638 -2.8722 0 0 26.7462 -1.60357 -8.69455 -8.6586 1.0176 -1.7016 57.703 -2.20164 -9.48297 -4.5461 -7.10543e-15 2.84217e-14 62.8817 -4.92884 -8.05336 -2.506 -1.42109e-14 1.42109e-14 24.7665 -0.767537 -4.84158 -7.6901 0.6618 -3.9096 55.7975 -13.3676 -9.74232 -3.2119 -3.55271e-15 -1.42109e-14 58.912 -10.4737 -18.4365 -1.924 -1.42109e-14 1.42109e-14 25.442 -2.0013 -10.7523 8.7379 -0.0029 0.0005 11.4009 -20.5706 34.8855 -5.55112e-16 -46.6676 7.10543e-15 18.3418 40.269 -1.6416 0 -40.1476 0 -11.6049 -14.107 6.35962 5.32907e-15 -8.8846 14.2294 0.0001 0 9.54166e-15 -8.7379 0.0029 -0.0005 -8.6279 -17.8572 -32.6164 -1.77636e-15 -46.6676 0 -18.4848 40.5033 4.70149 0 -40.1476 8.88178e-16 12.435 -17.7106 -5.87882 0 -8.8846 14.2294 1.98785e-16 1.49089e-16 3.18055e-15 
